<svg width="238" height="74" viewBox="0 0 238 74" fill="none" xmlns="http://www.w3.org/2000/svg">
<path d="M181.486 52.5894C181.278 53.1731 181.056 53.7464 180.814 54.3267C181.053 53.7464 181.278 53.1801 181.486 52.5894Z" fill="#21BF48"/>
<path d="M183.397 44.4412C183.327 45.0631 183.237 45.6782 183.13 46.2932C183.234 45.6782 183.324 45.0631 183.397 44.4412Z" fill="#21BF48"/>
<path d="M183.655 38.5861C183.655 37.9885 183.607 37.3943 183.563 36.7966C183.611 37.3769 183.642 37.9711 183.655 38.5861Z" fill="#21BF48"/>
<path d="M183.664 40.7023C183.664 40.1915 183.664 39.6773 183.664 39.1665C183.681 39.6773 183.677 40.1881 183.664 40.7023Z" fill="#21BF48"/>
<path d="M238 16.2437V45.3653C238 60.2302 224.505 72.7843 208.528 72.7843C197.876 72.7843 188.331 67.1727 183.171 59.014C186.757 52.3078 188.352 44.3021 187.679 36.1573C187.003 27.9153 184.049 20.2501 179.305 14.3292C179.754 11.8992 181.037 9.70305 182.931 8.12152C184.826 6.53999 187.214 5.67277 189.679 5.67018C192.476 5.67385 195.158 6.78915 197.135 8.77138C199.112 10.7536 200.224 13.4409 200.227 16.2437V45.3653C200.227 48.2702 203.85 51.6441 208.524 51.6441C212.748 51.6441 216.891 48.5343 216.891 45.3653V16.2437C216.892 14.8535 217.167 13.4772 217.699 12.1934C218.231 10.9096 219.011 9.74343 219.993 8.76154C220.975 7.77965 222.14 7.00127 223.423 6.47084C224.705 5.94041 226.079 5.66835 227.466 5.67018C230.261 5.67753 232.938 6.79444 234.913 8.77628C236.887 10.7581 237.997 13.4433 238 16.2437Z" fill="#21BF48"/>
<path d="M54.7938 21.6643C52.0295 27.104 50.5962 33.1246 50.6123 39.229C50.6027 47.0705 52.9702 54.7298 57.4013 61.1927V61.7834C57.3985 64.5869 56.286 67.2747 54.3079 69.257C52.3298 71.2394 49.6477 72.3543 46.8502 72.357C44.0534 72.3533 41.3721 71.238 39.3948 69.2558C37.4174 67.2736 36.3054 64.5863 36.3026 61.7834V49.7991H21.1054V61.7834C21.1036 64.5866 19.9918 67.2744 18.0143 69.2568C16.0367 71.2393 13.355 72.3542 10.5578 72.357C7.76096 72.3533 5.07975 71.238 3.1024 69.2558C1.12504 67.2736 0.0130061 64.5863 0.0102539 61.7834V16.6712C0.0139235 13.8689 1.12636 11.1825 3.10362 9.20105C5.08088 7.21957 7.76156 6.10475 10.5578 6.10107C13.3544 6.10383 16.0356 7.21835 18.013 9.20003C19.9905 11.1817 21.1027 13.8686 21.1054 16.6712V28.6555H36.3026V16.6712C36.3063 13.8689 37.4187 11.1825 39.396 9.20105C41.3733 7.21957 44.054 6.10475 46.8502 6.10107C49.6471 6.10383 52.3287 7.21824 54.3067 9.19982C56.2847 11.1814 57.3976 13.8683 57.4013 16.6712V17.2723C56.4365 18.6771 55.5654 20.1443 54.7938 21.6643Z" fill="#21BF48"/>
<path d="M148.609 27.1509C148.141 27.1509 147.666 27.1509 147.188 27.1509C147.787 27.1509 148.38 27.1509 148.963 27.1509H148.609ZM165.474 70.1609C165.928 69.9629 166.376 69.7579 166.813 69.539C166.376 69.7544 165.928 69.9629 165.474 70.1609ZM180.814 54.3127C181.056 53.7464 181.278 53.173 181.486 52.5754C181.278 53.18 181.053 53.7464 180.814 54.3127ZM183.13 46.2931C183.237 45.6781 183.327 45.0631 183.397 44.4411C183.324 45.0631 183.234 45.6781 183.13 46.2931ZM183.563 36.7793C183.608 37.377 183.639 37.9712 183.657 38.5688C183.643 37.9712 183.612 37.377 183.563 36.7793ZM183.671 39.1665C183.671 39.6772 183.671 40.1915 183.671 40.7023C183.678 40.188 183.681 39.6772 183.671 39.1665Z" fill="#21BF48"/>
<path d="M183.671 39.1665C183.612 32.9807 182.041 26.9036 179.097 21.4663C178.341 20.1023 177.489 18.7937 176.549 17.5503C176.164 17.05 175.772 16.56 175.36 16.084C173.513 13.9363 171.36 12.0745 168.969 10.5592C168.265 10.1106 167.538 9.6977 166.792 9.32219C166.13 8.97472 165.446 8.66893 164.756 8.38053C161.526 7.06883 158.096 6.31798 154.615 6.16018C150.78 6.10111 146.605 6.13585 142.673 6.06636C138.342 6.1011 133.946 5.87873 129.657 6.44163C124.716 7.64736 121.356 12.4807 121.727 17.5607C130.544 30.1392 130.371 48.5761 121.727 60.9148C121.614 62.7917 121.972 64.667 122.767 66.3701C123.629 68.1638 124.978 69.6775 126.66 70.7372C128.342 71.7969 130.288 72.3595 132.275 72.3605H140.69C152.076 72.3605 157.68 72.4821 160.63 71.815C166.334 70.4413 171.485 67.362 175.401 62.9857C175.748 62.6105 176.067 62.2248 176.382 61.8287C176.698 61.4325 176.951 61.099 177.228 60.7272C181.719 54.5317 183.778 46.7762 183.671 39.1665ZM162.79 40.3236C162.582 42.5891 162.097 44.8929 160.863 46.8248C160.475 47.4419 160.008 48.006 159.476 48.5031C158.436 49.4309 157.203 50.1146 155.866 50.5045C151.608 51.7485 147.219 51.1995 142.815 51.2273V27.2517C144.275 27.2517 145.745 27.1927 147.201 27.1718C152.798 27.0259 159.666 27.3351 161.827 33.5549C162.612 35.72 162.94 38.0248 162.79 40.3236Z" fill="#21BF48"/>
<path d="M108.922 1.00708C109.022 1.13325 109.11 1.26816 109.186 1.41016C109.111 1.26791 109.022 1.13296 108.922 1.00708ZM69.5267 1.86882C69.5704 1.70933 69.6296 1.55453 69.7036 1.40668C69.6281 1.55387 69.5688 1.70883 69.5267 1.86882Z" fill="#21BF48"/>
<path d="M121.713 26.4247C119.371 20.5355 115.475 15.3959 110.441 11.5564C110.469 11.3688 109.491 2.56036 109.487 2.36925C109.418 1.72204 109.112 1.12337 108.629 0.688457C108.146 0.253541 107.519 0.0130983 106.87 0.0133851C105.66 -0.302814 99.3768 5.08299 98.3435 5.61115C92.5205 4.07533 86.4 4.07533 80.577 5.61115C79.4952 5.05172 73.2956 -0.275016 72.0509 0.0133851C71.4014 0.0145434 70.7751 0.255402 70.2915 0.689963C69.808 1.12452 69.5012 1.72235 69.4296 2.36925C69.4296 2.56384 68.4622 11.3583 68.4761 11.5529C42.3533 31.2303 56.2607 73.9936 89.4672 73.9936C113.614 74.4696 130.905 48.2842 121.713 26.4247ZM89.4672 52.8326C71.6452 52.5164 71.5897 25.9869 89.3978 25.5908C107.293 25.8444 107.359 52.5233 89.4672 52.8499V52.8326Z" fill="#21BF48"/>
</svg>
